<svg width="128" height="128" viewBox="0 0 24 24" xmlns="http://www.w3.org/2000/svg">
    <title>remember-mcp-logo</title>
    <g transform="scale(0.8) translate(3,3)">
        <path d="m1.78,0.1c0.05,0 0.11,0 0.15,0c4.18,-0.01 4.27,-0.01 4.36,-0.01c0.37,0.06 0.61,0.23 0.87,0.51c4.18,6.33 4.25,6.43 4.31,6.54c0.21,0.34 0.21,0.34 0.5,0.61c0.19,0.05 0.19,0.05 0.39,0l1.22,-1.72c3.89,-5.77 4.04,-5.89 4.35,-5.94c0.09,0 0.17,0 0.27,0c3.69,0 3.85,0 4,0c0.13,0 0.13,0 0.27,0c0.11,0.02 0.11,0.02 0.2,0.03c0.17,0.26 0.18,0.32 0.18,0.63c0,22.48 0,22.55 0,22.62c-0.02,0.18 -0.02,0.18 -0.18,0.41c-4,0.01 -4,0.01 -4.13,0.01c-0.12,0 -0.12,0 -0.24,0c-0.18,-0.01 -0.18,-0.01 -0.26,-0.09c-0.01,-0.21 -0.01,-0.42 -0.01,-0.63c0.01,-4.53 0.01,-5.33 0.01,-6.13c-0.29,0.1 -0.32,0.21 -0.46,0.47c-0.03,0.06 -0.06,0.11 -0.09,0.17c-0.03,0.06 -0.06,0.11 -0.09,0.17c-0.07,0.12 -0.12,0.25 -0.18,0.37c-0.16,0.32 -0.32,0.63 -0.48,0.95c-0.03,0.07 -0.07,0.12 -0.1,0.19c-0.33,0.65 -0.68,1.3 -1.05,1.93c-0.08,0.13 -0.08,0.13 -0.15,0.27c-0.64,1.02 -1.66,1.91 -2.84,2.25c-0.93,0.17 -1.81,0.1 -2.63,-0.39c-1.34,-0.93 -2.16,-2.3 -2.49,-3.89c-0.02,-0.12 -0.04,-0.24 -0.06,-0.36c-0.01,-0.1 -0.01,-0.1 -0.03,-0.19c-0.25,-2.08 0.36,-3.61 1.37,-5.39c0.11,-0.18 0.2,-0.36 0.3,-0.55c0.04,-0.07 0.08,-0.13 0.11,-0.2c0.11,-0.32 0.03,-0.57 -0.11,-0.88c-2.82,-4.28 -2.82,-4.28 -3.12,-4.42c0,0.09 0,0.16 0,0.25c0.02,15.79 0.01,15.92 -0.15,16.18c-0.19,0.03 -0.19,0.03 -0.43,0.03c-0.09,0 -0.18,0 -0.27,0c-3.18,-0.01 -3.26,-0.01 -3.36,-0.01c-0.08,0 -0.16,0 -0.24,0c-0.19,-0.02 -0.19,-0.02 -0.34,-0.18c-0.02,-0.17 -0.02,-0.17 -0.02,-0.38c0,-22.49 0,-22.57 0,-22.65c0,-0.07 0,-0.14 0,-0.22c0.05,-0.4 0.34,-0.34 0.67,-0.35l-0.02,0zm16.09,6.7c-0.37,0.47 -0.73,0.95 -1.05,1.45c-0.1,0.14 2.82,-4.24 -0.3,0.44c-3.1,4.69 -3.53,5.22 -3.91,5.77c-0.89,1.28 -1.58,2.37 -1.43,3.98c0.09,0.42 0.22,0.8 0.53,1.12c0.31,0.17 0.54,0.23 0.89,0.14c1.11,-0.63 1.78,-2.08 2.43,-3.13c0.18,-0.29 0.37,-0.55 0.57,-0.83c0.37,-0.53 0.73,-1.08 1.08,-1.61c0.1,-0.14 0.2,-0.3 0.3,-0.44c0.14,-0.21 0.29,-0.43 0.43,-0.65c0.07,-0.1 0.07,-0.1 0.13,-0.2c0.04,-0.06 0.09,-0.12 0.12,-0.19c0.04,-0.06 0.07,-0.11 0.11,-0.16c0.21,-0.38 0.28,-0.73 0.27,-1.16c0,-0.1 0,-0.2 0,-0.3c-0.01,-2.99 -0.01,-3.56 -0.02,-4.14c-0.08,-0.04 -0.08,-0.04 -0.15,-0.08l0,-0.01z" fill="rgb(255,255,255)" stroke-width="1" stroke="rgb(0,0,0)" id="svg_6"/>
    </g>
</svg>