<svg xmlns="http://www.w3.org/2000/svg" viewBox="0 0 16 16">
  <path fill="#28a745" d="M10.78 13.72L7.28 10.22C8.28 9.22 8.78 8.22 8.78 7.22C8.78 4.22 6.28 1.72 3.28 1.72C0.28 1.72 -2.22 4.22 -2.22 7.22C-2.22 10.22 0.28 12.72 3.28 12.72C4.28 12.72 5.28 12.22 6.28 11.22L9.78 14.72C10.18 15.12 10.38 15.12 10.78 14.72C11.18 14.32 11.18 14.12 10.78 13.72ZM3.28 11.22C1.18 11.22 -0.72 9.32 -0.72 7.22C-0.72 5.12 1.18 3.22 3.28 3.22C5.38 3.22 7.28 5.12 7.28 7.22C7.28 9.32 5.38 11.22 3.28 11.22Z"/>
</svg>
